PathFileType	4	(X/Y/Z)	s09c0102.trc
DataRate	CameraRate	NumFrames	NumMarkers	Units	OrigDataRate	OrigDataStartFrame	OrigNumFrames
200	200	4	50	mm	200	500	2000
Frame#	Time	racr			lacr			c7			jug			rlel			rdr			llel			ldr			s2			lic			ric			lasi			rasi			rpsi			lpsi			rgt			lgt			rth1			rth2			rth3			rth4			rlfc			rmfc			rsh1			rsh2			rsh3			rsh4			rlmal			rmmal			rcal			rtoe			rmt5			lth1			lth2			lth4			lth3			llfc			lmfc			llmal			lmmal			lcal			lmt5			lsh1			lsh2			lsh3			lsh4			ltoe			SBIKE			LBIKE			RBIKE			
		X1	Y1	Z1	X2	Y2	Z2	X3	Y3	Z3	X4	Y4	Z4	X5	Y5	Z5	X6	Y6	Z6	X7	Y7	Z7	X8	Y8	Z8	X9	Y9	Z9	X10	Y10	Z10	X11	Y11	Z11	X12	Y12	Z12	X13	Y13	Z13	X14	Y14	Z14	X15	Y15	Z15	X16	Y16	Z16	X17	Y17	Z17	X18	Y18	Z18	X19	Y19	Z19	X20	Y20	Z20	X21	Y21	Z21	X22	Y22	Z22	X23	Y23	Z23	X24	Y24	Z24	X25	Y25	Z25	X26	Y26	Z26	X27	Y27	Z27	X28	Y28	Z28	X29	Y29	Z29	X30	Y30	Z30	X31	Y31	Z31	X32	Y32	Z32	X33	Y33	Z33	X34	Y34	Z34	X35	Y35	Z35	X36	Y36	Z36	X37	Y37	Z37	X38	Y38	Z38	X39	Y39	Z39	X40	Y40	Z40	X41	Y41	Z41	X42	Y42	Z42	X43	Y43	Z43	X44	Y44	Z44	X45	Y45	Z45	X46	Y46	Z46	X47	Y47	Z47	X48	Y48	Z48	X49	Y49	Z49	X50	Y50	Z50	
500	2.5000	483.156658	1236.107960	-32.682917	561.743983	1240.775812	-320.647371	500.380831	1274.877005	-174.871404	466.633516	1144.021425	-193.103666	468.410634	992.230185	45.932174	686.477760	887.707648	-27.890679	531.903823	1052.902005	-523.780720	694.171382	879.527966	-447.700814	9.031420	1139.881917	-259.405803	152.247361	1118.878166	-397.752744	142.381561	1146.621156	-104.489320	187.507032	1058.703524	-369.569770	187.443074	1100.362633	-119.665929	33.068583	1173.240598	-199.712868	43.981010	1172.183301	-309.696396	126.348373	1020.452056	-53.560898	114.652813	990.106624	-430.458305	248.611925	953.706695	-66.207001	333.449279	934.096776	-77.804432	394.185224	869.281056	-84.763130	347.495647	958.852351	-100.575697	467.435050	792.872392	-119.250913	451.341116	769.680452	-213.299109	422.744591	700.031587	-82.410434	412.744534	611.748497	-95.360021	362.064466	540.685292	-90.204400	434.664131	605.412939	-128.030985	327.309186	444.807632	-84.974889	323.507857	456.535347	-164.503971	251.349137	391.505421	-120.729363	510.680311	447.381918	-126.931858	436.229030	410.625133	-60.535958	204.532411	883.992802	-424.504400	272.334563	833.825111	-416.595233	300.804386	855.294601	-403.735898	308.136088	750.600190	-412.083972	336.834621	654.618399	-399.935533	349.403820	637.477651	-301.904174	112.060440	366.073014	-399.684365	137.045249	358.479492	-330.360993	41.209610	369.577685	-361.056390	148.664755	236.557912	-428.211417	275.771852	575.434926	-420.894186	242.913645	496.020931	-410.501812	172.018407	441.891860	-407.563012	264.351650	483.326672	-379.879531	233.020878	193.749343	-361.596206	-64.583514	852.525497	-240.199408	21.150599	84.076764	-442.060961	21.172611	83.971809	-43.870353	
501	2.5050	485.519557	1236.738518	-32.890430	561.936167	1240.620381	-321.382220	502.612237	1275.779750	-177.246123	468.972290	1144.813483	-194.984644	468.524871	992.253054	45.264868	686.297033	887.757196	-28.076370	530.640519	1052.059132	-523.590289	693.809790	879.456818	-447.930606	9.776132	1140.449029	-257.625316	152.120357	1119.976748	-396.701366	143.056491	1146.070020	-103.287475	187.461483	1059.639460	-368.960670	188.691930	1099.369682	-118.664894	34.092165	1173.468371	-197.864063	44.388397	1173.085485	-307.861196	127.540111	1019.345065	-52.931169	114.543427	991.707970	-429.996287	249.344030	951.818513	-65.488918	334.073490	931.551609	-77.146930	394.007642	866.109969	-84.287216	348.312031	956.228571	-99.828591	466.841614	789.401289	-118.908582	450.863993	766.465617	-212.935741	422.722233	696.399035	-82.133309	413.636913	607.987269	-95.149354	363.612948	536.448454	-90.124957	435.770669	601.937077	-127.807325	329.566937	440.200703	-85.032069	325.697739	451.975783	-164.531086	253.691025	386.870150	-120.722560	513.101433	442.664993	-126.904952	438.444733	405.978625	-60.472980	204.640390	885.848581	-424.532039	272.721268	835.854501	-417.117677	301.178131	857.437354	-404.457531	308.923424	752.811380	-412.916700	337.894960	656.805791	-400.855684	350.728331	639.442127	-302.742161	110.344096	370.701330	-399.764214	135.551914	363.004740	-330.505721	39.472738	374.551023	-361.096344	146.391295	241.038709	-428.162846	276.364185	578.205384	-421.576115	243.013847	499.228945	-411.350582	171.168669	445.809989	-407.813082	264.258259	486.451254	-380.472703	230.548476	197.904167	-361.517378	-64.565985	852.554358	-240.203967	21.157801	84.079500	-442.062455	21.173885	83.957222	-43.858835	
502	2.5100	488.024260	1237.107108	-33.399175	562.042818	1240.547993	-322.219556	504.715952	1276.521765	-179.363816	471.034585	1145.490367	-196.656718	468.533123	992.437669	44.689107	686.131190	887.827637	-28.252572	529.321139	1051.162393	-523.416100	693.511168	879.296604	-448.078215	10.398182	1140.928352	-255.854413	152.075293	1121.046097	-395.618691	144.487742	1145.552092	-101.246771	187.500822	1060.603845	-368.228651	189.851181	1098.357254	-117.517376	35.071002	1173.595687	-196.071784	44.780722	1173.821766	-306.090217	128.741366	1018.170183	-52.311089	114.388611	993.206302	-429.647079	249.615664	950.129947	-64.247151	334.484679	928.772451	-76.511269	393.813041	862.957166	-83.914368	349.075713	953.428578	-99.083717	466.216534	786.113372	-118.317494	450.233989	763.190522	-212.522090	422.636466	692.594604	-81.768471	414.296419	604.114634	-95.007633	365.008941	532.140366	-90.146379	436.603732	598.319571	-127.544747	331.696486	435.548156	-85.027322	327.896969	447.460939	-164.537180	255.986163	382.193881	-120.782109	515.501862	437.766036	-126.875565	440.728778	401.181792	-60.422042	204.784934	887.568084	-424.611672	273.153563	837.917578	-417.762002	301.586341	859.576607	-405.189163	309.747941	754.917684	-413.853334	339.283229	659.000960	-401.763081	351.793500	641.687001	-303.638316	108.774476	375.479247	-399.871782	134.014674	367.865480	-330.614495	37.911656	379.649092	-361.103574	144.284983	245.673698	-428.195206	277.100252	580.948083	-422.222417	242.905996	502.304821	-411.824558	170.466715	449.758233	-408.081563	264.073249	489.568505	-380.935029	228.306119	202.240635	-361.661170	-64.532500	852.544048	-240.171549	21.160011	84.083638	-442.061241	21.166974	83.976051	-43.869924	
503	2.5150	490.545160	1237.825142	-33.869302	562.031005	1240.615454	-323.436780	506.171734	1276.921339	-180.839809	472.404919	1145.797846	-197.382452	468.597263	992.649530	43.945724	685.987082	887.915946	-28.436140	527.957269	1050.293336	-523.435004	692.280549	878.249982	-447.356787	11.046291	1141.347842	-254.152362	152.142956	1122.063877	-394.562808	147.821367	1145.049272	-98.442231	187.703878	1061.588975	-367.440392	191.090410	1097.215635	-116.330064	36.085883	1173.625908	-194.363499	45.168266	1174.507832	-304.341052	129.913261	1017.040773	-51.721045	114.393013	994.619774	-429.219112	250.272498	948.054935	-63.558984	334.948558	926.020117	-75.830620	393.528993	859.948885	-83.605669	349.724235	950.734140	-98.446235	465.397185	782.805732	-117.670837	449.539033	759.887190	-212.097185	422.467817	688.736703	-81.375069	414.984961	600.260052	-94.692985	366.357152	527.836789	-90.051241	437.508458	594.780596	-127.322353	333.671280	430.910961	-84.991576	330.027662	442.800972	-164.548934	258.181494	377.571714	-120.889391	517.776212	432.814237	-126.928858	442.954421	396.285901	-60.505431	205.073641	889.283692	-424.595698	273.662111	839.908715	-418.395883	302.072533	861.724260	-405.962179	310.712223	757.164369	-414.879200	340.895655	661.203197	-402.646408	354.050835	643.774294	-304.439633	107.383152	380.268803	-399.944227	132.726486	372.601717	-330.688867	36.488328	384.744981	-361.072214	142.285761	250.392536	-428.107516	278.085332	583.657297	-422.827727	243.065310	505.761673	-412.375773	169.910910	453.754784	-408.335840	264.009475	492.482316	-381.386994	226.136254	206.579432	-361.553400	-64.521492	852.559249	-240.170165	21.167063	84.085143	-442.064075	21.178116	83.964994	-43.867247	
